<svg xmlns="http://www.w3.org/2000/svg" viewBox="0 0 800 500" role="img" aria-label="Emergency Care">
  <defs>
    <linearGradient id="b7" x1="0" y1="0" x2="1" y2="1">
      <stop offset="0" stop-color="hsl(206 55% 42%)"/>
      <stop offset="1" stop-color="hsl(176 45% 42%)"/>
    </linearGradient>
  </defs>
  <rect width="800" height="500" fill="url(#b7)"/>
  <circle cx="650" cy="120" r="240" fill="#ffffff" opacity="0.07"/>
  <circle cx="120" cy="430" r="180" fill="#ffffff" opacity="0.05"/>
  <g opacity="0.18" fill="#ffffff">
    <circle cx="700" cy="380" r="6"/><circle cx="640" cy="420" r="4"/>
    <circle cx="120" cy="120" r="5"/><circle cx="180" cy="80" r="3"/>
    <circle cx="500" cy="60" r="4"/><circle cx="60" cy="300" r="3"/>
  </g>
  <g transform="translate(310 160) scale(7.5)" fill="none" stroke="#ffffff" stroke-width="1.5" stroke-linecap="round" stroke-linejoin="round"><path d="M21 14H3" /><path d="M3 6h15a2 2 0 0 1 2 2v8a2 2 0 0 1-2 2H3" /><path d="M7 17a2 2 0 1 0 0 .01" /><path d="M17 17a2 2 0 1 0 0 .01" /></g>
  <text x="400" y="450" text-anchor="middle" font-family="Manrope, system-ui, sans-serif" font-size="20" font-weight="600" letter-spacing="3" fill="#ffffff" opacity="0.9">EMERGENCY CARE</text>
</svg>
